# xmcd
#
# Track frame offsets: 
#        150
#        13700
#        29212
#        50592
#        66767
#        76847
#        92762
#        129877
#        143800
#        164432
#        179310
#        215507
#        228590
#
# Disc length: 3229 seconds
#
# Revision: 2
# Processed by: cddbd v1.5.2PL0 Copyright (c) Steve Scherf et al.
# Submitted via: ExactAudioCopy v0.99pb4
#
DISCID=b20c9b0d
DTITLE=Joe Beard - For Real
DYEAR=1998
DGENRE=Blues
TTITLE0=Drinking Old Taylor
TTITLE1=Don't Start Me Talking
TTITLE2=It's Up To You
TTITLE3=See See Rider
TTITLE4=Dirty Groundhog
TTITLE5=Reap What You Sow
TTITLE6=Elem
TTITLE7=Who's Using Who
TTITLE8=The Things I Used to Do
TTITLE9=If That's What Pleases Her
TTITLE10=She's Wonderful
TTITLE11=37 Years Old
TTITLE12=Airplane Blues
EXTD=
EXTT0=
EXTT1=
EXTT2=
EXTT3=
EXTT4=
EXTT5=
EXTT6=
EXTT7=
EXTT8=
EXTT9=
EXTT10=
EXTT11=
EXTT12=
PLAYORDER=
